<?xml version="1.0" encoding="UTF-8" standalone="no"?>
<!DOCTYPE svg PUBLIC "-//W3C//DTD SVG 1.1//EN" "http://www.w3.org/Graphics/SVG/1.1/DTD/svg11.dtd">
<svg width="100%" height="100%" viewBox="0 0 300 300" version="1.1" xmlns="http://www.w3.org/2000/svg" xmlns:xlink="http://www.w3.org/1999/xlink" xml:space="preserve" xmlns:serif="http://www.serif.com/" style="fill-rule:evenodd;clip-rule:evenodd;stroke-linecap:round;stroke-linejoin:round;stroke-miterlimit:1.5;">
    <g transform="matrix(1.25226,0,0,1.25226,-37.838979,-26.47656)">
        <g transform="matrix(-4.214217,0,0,4.214217,885.027227,-228.057544)">
            <path d="M171.521,79.916L174.415,79.899L174.416,113.978C174.416,113.978 171.376,113.657 170.363,113.11C169.439,112.611 169.016,111.498 168.337,110.698C167.436,109.636 165.651,108.317 164.96,106.741C164.268,105.165 164.568,103.053 164.188,101.241C163.786,99.327 163,97.276 162.547,95.258C162.069,93.129 161.527,90.359 160.144,88.518C158.286,86.044 153.123,82.82 151.398,80.415C150.154,78.681 150.262,74.153 150.968,74.03C151.674,73.906 151.726,76.438 153.431,78.014C155.081,79.539 158.345,82.864 159.593,83.772C160.276,84.269 162.441,86.443 163.212,86.1C164.081,85.714 165.764,82.344 166.407,81.17C166.91,80.252 167.78,78.235 167.769,77.188C167.753,75.676 166.709,69.47 166.243,67.91C165.862,66.636 165.166,65.528 164.635,64.418C164.139,63.381 163.011,61.201 163.573,61.137C164.136,61.073 166.806,62.842 168.012,64.032C169.218,65.222 169.509,72.114 169.694,73.29C169.887,74.513 171.521,79.916 171.521,79.916Z" style="fill:none;stroke:black;stroke-width:1.74px;"/>
        </g>
        <g transform="matrix(-1,0,0,1,300.006133,0)">
            <path d="M102.913,135.279C102.913,135.279 129.962,163.768 134.267,174.481C142.136,194.062 150.006,252.272 150.006,252.272" style="fill:none;stroke:black;stroke-width:7.32px;"/>
        </g>
        <g transform="matrix(-0.995626,-0.009497,0.009497,0.97938,297.715356,4.973904)">
            <path d="M119.219,105.282L150.006,172.129" style="fill:none;stroke:black;stroke-width:7.48px;"/>
        </g>
        <g transform="matrix(4.214217,0,0,4.214217,-585.027227,-228.057544)">
            <path d="M171.521,79.916L174.415,79.899L174.416,113.978C174.416,113.978 171.376,113.657 170.363,113.11C169.439,112.611 169.016,111.498 168.337,110.698C167.436,109.636 165.651,108.317 164.96,106.741C164.268,105.165 164.568,103.053 164.188,101.241C163.786,99.327 163,97.276 162.547,95.258C162.069,93.129 161.527,90.359 160.144,88.518C158.286,86.044 153.123,82.82 151.398,80.415C150.154,78.681 150.262,74.153 150.968,74.03C151.674,73.906 151.726,76.438 153.431,78.014C155.081,79.539 158.345,82.864 159.593,83.772C160.276,84.269 162.441,86.443 163.212,86.1C164.081,85.714 165.764,82.344 166.407,81.17C166.91,80.252 167.78,78.235 167.769,77.188C167.753,75.676 166.709,69.47 166.243,67.91C165.862,66.636 165.166,65.528 164.635,64.418C164.139,63.381 163.011,61.201 163.573,61.137C164.136,61.073 166.806,62.842 168.012,64.032C169.218,65.222 169.509,72.114 169.694,73.29C169.887,74.513 171.521,79.916 171.521,79.916Z" style="fill:none;stroke:black;stroke-width:1.74px;"/>
        </g>
        <g transform="matrix(1,0,0,1,-0.006133,0)">
            <path d="M102.913,135.279C102.913,135.279 129.962,163.768 134.267,174.481C142.136,194.062 150.006,252.272 150.006,252.272" style="fill:none;stroke:black;stroke-width:7.32px;"/>
        </g>
        <g transform="matrix(0.995626,-0.009497,-0.009497,0.97938,2.284644,4.973904)">
            <path d="M119.219,105.282L150.006,172.129" style="fill:none;stroke:black;stroke-width:7.48px;"/>
        </g>
    </g>
</svg>
